<svg xmlns="http://www.w3.org/2000/svg" width="21.428" height="19.078" viewBox="0 0 21.428 19.078">
    <path data-name="Path 22804" d="M8.792 20.489h8.766A1.935 1.935 0 0 0 19.35 19.3l2.941-6.866a1.924 1.924 0 0 0 .136-.711V9.776a1.954 1.954 0 0 0-1.947-1.948h-6.146l.925-4.451.029-.312a1.466 1.466 0 0 0-.429-1.032l-.344-.341a.975.975 0 0 0-1.374 0L7.409 7.429A1.936 1.936 0 0 0 6.844 8.8v9.739a1.954 1.954 0 0 0 1.948 1.95zm0-11.687 4.227-4.227-1.305 5.2h8.766v1.948l-2.922 6.818H8.792zm-6.818 0h1.948a.974.974 0 0 1 .974.974v9.739a.974.974 0 0 1-.974.974H1.974A.974.974 0 0 1 1 19.515V9.776a.974.974 0 0 1 .974-.976z" transform="translate(-1 -1.411)" style="fill:#fff"/>
</svg>
