<svg xmlns="http://www.w3.org/2000/svg" width="13.879" height="11.871" viewBox="0 0 13.879 11.871">
    <path data-name="Subtraction 11" d="M-1935.186-4726.129h-11.75a1.077 1.077 0 0 1-.922-.514 1 1 0 0 1 0-1.027l5.875-9.815a1.073 1.073 0 0 1 .922-.515 1.077 1.077 0 0 1 .922.515l5.874 9.815a1 1 0 0 1 0 1.027 1.075 1.075 0 0 1-.921.514zm-5.874-3.345a.6.6 0 0 0-.611.59.6.6 0 0 0 .611.588.6.6 0 0 0 .61-.588.6.6 0 0 0-.61-.59zm0-4.737h-.065a.743.743 0 0 0-.5.254.692.692 0 0 0-.168.52l.3 3.372a.425.425 0 0 0 .394.381h.038a.43.43 0 0 0 .431-.383l.305-3.372a.668.668 0 0 0 0-.125.724.724 0 0 0-.735-.647z" transform="translate(1948 4738)" style="fill:#b50d0d"/>
</svg>
